# xmcd
# 
# Track frame offsets:
#     150
#     27491
#     41957
#     53421
#     67992
#     79541
#     93069
#     106799
#     118225
#     132652
#     146548
#     163829
#     178223
#     192437
# 
# Disc length: 2702
# 
# Revision: 3
# Processed by: cddbd v1.5.2PL0 Copyright (c) Steve Scherf et al.
# Submitted via: fre:ac v1.0.17
# 
DISCID=c30a8c0e
DTITLE=Miles Davis - Collection 2 artistes en OR – cd3
DYEAR=2009
DGENRE=Jazz
TTITLE0=Bye bye blackbird
TTITLE1=Bird of paradise
TTITLE2=Move
TTITLE3=Rouge
TTITLE4=Budo
TTITLE5=Boplicity
TTITLE6=Boplicity2
TTITLE7=The hymn
TTITLE8=Jeru
TTITLE9=Klact-oveeseds-tene
TTITLE10=Out of nowhere
TTITLE11=Venus de milo
TTITLE12=Godchild
TTITLE13=Israel
EXTD=
EXTT0=
EXTT1=
EXTT2=
EXTT3=
EXTT4=
EXTT5=
EXTT6=
EXTT7=
EXTT8=
EXTT9=
EXTT10=
EXTT11=
EXTT12=
EXTT13=
PLAYORDER=
